<svg width="1586" height="1236" viewBox="0 0 1586 1236" fill="none" xmlns="http://www.w3.org/2000/svg">
<path d="M1580.22 784.007C1532.08 828.643 1404.54 928.305 1278.46 968.119C1234.81 981.904 1185.4 979.382 1133.22 968.42C1080.89 957.425 1023.35 937.386 962.389 913.786C839.29 866.126 701.429 803.768 551.893 762.701C438.195 731.476 361.645 757.499 311.138 799.434C259.277 842.495 232.135 904.695 223.421 948.52L174.382 938.77C184.761 886.569 216.493 813.031 279.198 760.967C343.257 707.778 436.967 679.288 565.134 714.486C717.929 756.448 860.702 820.799 980.442 867.158C1040.9 890.567 1095.33 909.366 1143.51 919.489C1191.84 929.644 1231.48 930.521 1263.41 920.44C1379.18 883.881 1500.27 789.955 1546.22 747.344L1580.22 784.007Z" fill="#C88E4D"/>
<path d="M33.2163 852.765C173.014 665.835 313.275 583.952 468.673 561.045C621.58 538.505 786.679 573.746 973.17 613.338C1122.5 645.042 1225.13 593.605 1292.25 519.226C1360.7 443.372 1392.43 343.144 1395.43 280.618L1445.37 283.017C1441.86 356.202 1406.13 467.665 1329.37 552.723C1251.28 639.256 1130.96 697.952 962.787 662.248C773.772 622.12 618.202 589.543 475.965 610.51C336.22 631.109 206.863 704.059 73.2574 882.709L33.2163 852.765Z" fill="#C88E4D"/>
<path d="M654.193 207.822C678.149 269.235 746.485 359.77 834.597 395.942C877.702 413.637 925.195 418.249 975.473 400.598C1026.17 382.8 1082.2 341.473 1140.08 262.605L1180.39 292.186C1118.54 376.471 1054.98 425.678 992.036 447.776C928.671 470.021 868.461 463.893 815.608 442.196C711.804 399.581 635.2 296.719 607.611 225.993L654.193 207.822Z" fill="#C88E4D"/>
</svg>
