<svg viewBox="0 0 13 13" xmlns="http://www.w3.org/2000/svg" fill="black"><path d="M3.07 11.526c-.627-.704-1.133-1.392-1.622-2.059A11.7 11.7 0 0 1 .292 7.533C.09 7.12 0 6.702.438 6.433c1.253-.77 1.51-.035 2.19.819.405.505 1 1.339 1.373 1.866.356.503.79-.405.964-.661.616-.91 2.218-3.14 2.88-3.964.629-.782 2.657-2.973 3.036-3.322.321-.296 1.001-.947 1.458-.588.48.377.715 1.094.377 1.56-.588.812-1.511 1.585-2.15 2.358-1.293 1.564-2.518 3.25-3.693 4.93-.4.57-.96 1.527-1.309 2.146-.651 1.157-1.223 1.378-2.495-.051"/></svg>