<svg width="968" height="463" viewBox="0 0 968 463" fill="none" xmlns="http://www.w3.org/2000/svg">
<g clip-path="url(#clip0_2001_200)">
<path d="M1051.23 232.771C1017.3 276.509 925.256 376.57 825.6 427.915L823.244 429.119C787.839 447.064 745.466 451.751 700.083 449.76C654.536 447.762 603.467 438.888 549.271 427.555C441.347 404.986 320.165 372.631 192.136 358.558L186.034 357.902C87.9269 347.585 28.8436 379.447 -6.68321 420.397C-43.3636 462.677 -57.269 517.442 -58.4964 554.588L-108.468 552.937C-106.959 507.257 -90.3677 440.558 -44.4511 387.632C2.6193 333.376 78.2343 296.29 191.264 308.176L197.524 308.849C328.915 323.295 455.053 356.77 559.505 378.613C613.182 389.838 660.971 397.997 702.274 399.809C743.74 401.628 776.206 396.905 800.638 384.521L802.768 383.432C892.925 336.963 979.607 243.523 1011.73 202.121L1051.23 232.771Z" fill="#C88E4D"/>
<path d="M-214.772 74.0026C-40.0155 -20.515 96.8396 -23.7496 224.014 19.1832C286.634 40.3232 346.107 72.3733 405.645 108.512C435.436 126.595 465.523 145.878 496.085 165.436C526.732 185.048 557.92 204.978 590.324 224.641L592.581 226C688.007 282.969 769.558 272.112 834.2 236.537C901.069 199.736 950.864 135.634 975.817 87.7204L1020.16 110.815C992.088 164.723 936.188 237.481 858.307 280.342C779.331 323.806 678.816 335.68 567.028 268.977L564.385 267.387C531.4 247.371 499.737 227.134 469.135 207.551C438.448 187.913 408.888 168.971 379.702 151.255C321.285 115.796 265.478 85.9535 208.021 66.5567C95.0418 28.4158 -27.4434 29.5298 -190.986 117.983L-214.772 74.0026Z" fill="#C88E4D"/>
<path d="M496.999 -61.4931C509.928 -0.132578 571.994 80.7523 657.585 109.987C699.459 124.289 746.93 126.219 797.581 107.261C848.519 88.1952 904.343 47.3559 961.164 -26.716L1000.84 3.71576C939.907 83.1435 876.982 130.93 815.108 154.088C752.949 177.354 693.546 175.105 641.425 157.303C539.025 122.328 464.609 27.294 448.073 -51.1838L496.999 -61.4931Z" fill="#C88E4D"/>
</g>
<defs>
<clipPath id="clip0_2001_200">
<rect width="968" height="463" fill="white"/>
</clipPath>
</defs>
</svg>
