<svg width="143" height="36" viewBox="0 0 143 36" fill="none" xmlns="http://www.w3.org/2000/svg">
<path d="M64.0056 35.4336V0H79.2927C81.52 0 83.4941 0.506195 85.2152 1.51858C86.97 2.53097 88.3536 3.91457 89.366 5.66938C90.4121 7.42419 90.9352 9.39835 90.9352 11.5919C90.9352 13.8866 90.4121 15.9451 89.366 17.7674C88.3536 19.556 86.97 20.9733 85.2152 22.0195C83.4941 23.0656 81.52 23.5887 79.2927 23.5887H72.6109V35.4336H64.0056ZM72.4591 16.0464H78.0778C78.8202 16.0464 79.4952 15.8608 80.1026 15.4896C80.71 15.1184 81.1994 14.6122 81.5706 13.971C81.9418 13.3298 82.1274 12.5874 82.1274 11.7437C82.1274 10.8663 81.9418 10.1239 81.5706 9.51646C81.1994 8.90903 80.71 8.43658 80.1026 8.09912C79.4952 7.76165 78.8202 7.59292 78.0778 7.59292H72.4591V16.0464Z" fill="#1D1F28"/>
<path d="M37.5767 35.4336V0H52.8637C55.091 0 57.0652 0.506195 58.7862 1.51858C60.541 2.53097 61.9246 3.91457 62.937 5.66938C63.9832 7.42419 64.5062 9.39835 64.5062 11.5919C64.5062 13.8866 63.9832 15.9451 62.937 17.7674C61.9246 19.556 60.541 20.9733 58.7862 22.0195C57.0652 23.0656 55.091 23.5887 52.8637 23.5887H46.182V35.4336H37.5767ZM46.0301 16.0464H51.6489C52.3913 16.0464 53.0662 15.8608 53.6737 15.4896C54.2811 15.1184 54.7704 14.6122 55.1416 13.971C55.5128 13.3298 55.6984 12.5874 55.6984 11.7437C55.6984 10.8663 55.5128 10.1239 55.1416 9.51646C54.7704 8.90903 54.2811 8.43658 53.6737 8.09912C53.0662 7.76165 52.3913 7.59292 51.6489 7.59292H46.0301V16.0464Z" fill="#1D1F28"/>
<path d="M5.01147 35.4336L19.0331 0H26.3223L40.2426 35.4336H31.5361L24.8543 17.4637C24.5843 16.755 24.3144 15.9958 24.0444 15.1858C23.7744 14.3759 23.5045 13.5491 23.2345 12.7055C22.9645 11.8281 22.6945 10.9844 22.4246 10.1745C22.1883 9.33086 21.9859 8.55469 21.8171 7.84602L23.3357 7.7954C23.1332 8.63906 22.897 9.46584 22.6271 10.2758C22.3908 11.0857 22.1377 11.8956 21.8678 12.7055C21.6315 13.4817 21.3616 14.2747 21.0578 15.0846C20.7541 15.8608 20.4673 16.6707 20.1973 17.5143L13.5155 35.4336H5.01147ZM11.6932 29.2834L14.3761 22.8041H30.6755L33.3078 29.2834H11.6932Z" fill="#1D1F28"/>
<path d="M118.728 35.7374C115.792 35.7374 113.177 35.1468 110.882 33.9657C108.587 32.7508 106.782 31.0972 105.466 29.005C104.183 26.9127 103.542 24.5167 103.542 21.817V0H112.249V21.3614C112.249 22.6438 112.536 23.808 113.109 24.8542C113.683 25.8666 114.459 26.6765 115.438 27.2839C116.416 27.8576 117.513 28.1444 118.728 28.1444C120.01 28.1444 121.141 27.8576 122.12 27.2839C123.132 26.6765 123.942 25.8666 124.549 24.8542C125.157 23.808 125.46 22.6438 125.46 21.3614V0H133.863V21.817C133.863 24.5167 133.205 26.9127 131.889 29.005C130.607 31.0972 128.818 32.7508 126.523 33.9657C124.229 35.1468 121.63 35.7374 118.728 35.7374Z" fill="#1D1F28"/>
<path d="M79.7256 29.2051V23.3052L94.3748 0H99.4121V8.16634H96.4308L87.1958 22.9246V23.2014H112.457L112.515 23.376C113.186 25.396 114.746 26.9964 116.749 27.7179C118.103 28.206 119.593 28.1991 120.945 27.7029C122.887 26.9904 124.423 25.4517 125.125 23.5065L125.235 23.2014H143V29.2051H79.7256ZM96.5679 35.4336V27.4057L96.705 24.7932V0H103.661V35.4336H96.5679Z" fill="#E3B66D"/>
<path d="M0 23.0952H7.90929L5.69469 29.1062H0V23.0952Z" fill="#E3B66D"/>
</svg>
